<mxfile host="Electron" modified="2023-05-04T09:51:50.887Z" agent="Mozilla/5.0 (X11; Linux x86_64) AppleWebKit/537.36 (KHTML, like Gecko) draw.io/21.2.1 Chrome/112.0.5615.87 Electron/24.1.2 Safari/537.36" etag="ydOQc_7327zYDz8jmZn5" version="21.2.1" type="device">
  <diagram name="Page-1" id="FMEbDjBZcTj3LEX35FN6">
    <mxGraphModel dx="2284" dy="969" grid="1" gridSize="10" guides="1" tooltips="1" connect="1" arrows="1" fold="1" page="1" pageScale="1" pageWidth="850" pageHeight="1100" math="0" shadow="0">
      <root>
        <mxCell id="0" />
        <mxCell id="1" parent="0" />
        <mxCell id="Uie6bxuWlHnHRr9zqOEK-19" value="" style="sketch=0;outlineConnect=0;fontColor=#232F3E;gradientColor=none;fillColor=#232F3D;strokeColor=none;dashed=0;verticalLabelPosition=bottom;verticalAlign=top;align=center;html=1;fontSize=12;fontStyle=0;aspect=fixed;pointerEvents=1;shape=mxgraph.aws4.document;fontFamily=Computer Modern;" parent="1" vertex="1">
          <mxGeometry x="91.5" y="250" width="57" height="78" as="geometry" />
        </mxCell>
        <mxCell id="Uie6bxuWlHnHRr9zqOEK-20" value="" style="verticalLabelPosition=bottom;shadow=0;dashed=0;align=center;html=1;verticalAlign=top;strokeWidth=1;shape=mxgraph.mockup.markup.curlyBrace;whiteSpace=wrap;strokeColor=#999999;fontFamily=Computer Modern;" parent="1" vertex="1">
          <mxGeometry x="270" y="260" width="300" height="280" as="geometry" />
        </mxCell>
        <mxCell id="Uie6bxuWlHnHRr9zqOEK-21" value="" style="sketch=0;outlineConnect=0;fontColor=#232F3E;gradientColor=none;fillColor=#232F3D;strokeColor=none;dashed=0;verticalLabelPosition=bottom;verticalAlign=top;align=center;html=1;fontSize=12;fontStyle=0;aspect=fixed;pointerEvents=1;shape=mxgraph.aws4.document;fontFamily=Computer Modern;" parent="1" vertex="1">
          <mxGeometry x="397" y="250" width="57" height="78" as="geometry" />
        </mxCell>
        <mxCell id="Uie6bxuWlHnHRr9zqOEK-22" value="" style="verticalLabelPosition=bottom;shadow=0;dashed=0;align=center;html=1;verticalAlign=top;strokeWidth=1;shape=mxgraph.mockup.markup.curlyBrace;whiteSpace=wrap;strokeColor=#999999;fontFamily=Computer Modern;" parent="1" vertex="1">
          <mxGeometry x="-30" y="340" width="300" height="120" as="geometry" />
        </mxCell>
        <mxCell id="Uie6bxuWlHnHRr9zqOEK-23" value="" style="verticalLabelPosition=bottom;shadow=0;dashed=0;align=center;html=1;verticalAlign=top;strokeWidth=1;shape=mxgraph.mockup.markup.curlyBrace;whiteSpace=wrap;strokeColor=#999999;fontFamily=Computer Modern;" parent="1" vertex="1">
          <mxGeometry x="570" y="260" width="300" height="280" as="geometry" />
        </mxCell>
        <mxCell id="Uie6bxuWlHnHRr9zqOEK-24" value="" style="sketch=0;outlineConnect=0;fontColor=#232F3E;gradientColor=none;fillColor=#232F3D;strokeColor=none;dashed=0;verticalLabelPosition=bottom;verticalAlign=top;align=center;html=1;fontSize=12;fontStyle=0;aspect=fixed;pointerEvents=1;shape=mxgraph.aws4.document;fontFamily=Computer Modern;" parent="1" vertex="1">
          <mxGeometry x="691.5" y="250" width="57" height="78" as="geometry" />
        </mxCell>
        <mxCell id="Uie6bxuWlHnHRr9zqOEK-42" value="" style="sketch=0;outlineConnect=0;fontColor=#232F3E;gradientColor=none;fillColor=#232F3D;strokeColor=none;dashed=0;verticalLabelPosition=bottom;verticalAlign=top;align=center;html=1;fontSize=12;fontStyle=0;aspect=fixed;pointerEvents=1;shape=mxgraph.aws4.document;fontFamily=Computer Modern;" parent="1" vertex="1">
          <mxGeometry x="42" y="550" width="57" height="78" as="geometry" />
        </mxCell>
        <mxCell id="Uie6bxuWlHnHRr9zqOEK-43" value="" style="sketch=0;outlineConnect=0;fontColor=#232F3E;gradientColor=none;fillColor=#232F3D;strokeColor=none;dashed=0;verticalLabelPosition=bottom;verticalAlign=top;align=center;html=1;fontSize=12;fontStyle=0;aspect=fixed;pointerEvents=1;shape=mxgraph.aws4.document;fontFamily=Computer Modern;" parent="1" vertex="1">
          <mxGeometry x="399" y="550" width="57" height="78" as="geometry" />
        </mxCell>
        <mxCell id="Uie6bxuWlHnHRr9zqOEK-44" value="" style="verticalLabelPosition=bottom;shadow=0;dashed=0;align=center;html=1;verticalAlign=top;strokeWidth=1;shape=mxgraph.mockup.markup.curlyBrace;whiteSpace=wrap;strokeColor=#999999;fontFamily=Computer Modern;" parent="1" vertex="1">
          <mxGeometry x="-85" y="628" width="300" height="140" as="geometry" />
        </mxCell>
        <mxCell id="Uie6bxuWlHnHRr9zqOEK-45" value="" style="sketch=0;outlineConnect=0;fontColor=#232F3E;gradientColor=none;fillColor=#232F3D;strokeColor=none;dashed=0;verticalLabelPosition=bottom;verticalAlign=top;align=center;html=1;fontSize=12;fontStyle=0;aspect=fixed;pointerEvents=1;shape=mxgraph.aws4.document;fontFamily=Computer Modern;" parent="1" vertex="1">
          <mxGeometry x="756.5" y="550" width="57" height="78" as="geometry" />
        </mxCell>
        <mxCell id="Uie6bxuWlHnHRr9zqOEK-65" value="" style="verticalLabelPosition=bottom;shadow=0;dashed=0;align=center;html=1;verticalAlign=top;strokeWidth=1;shape=mxgraph.mockup.markup.curlyBrace;whiteSpace=wrap;strokeColor=#999999;fontFamily=Computer Modern;" parent="1" vertex="1">
          <mxGeometry x="215" y="620" width="420" height="140" as="geometry" />
        </mxCell>
        <mxCell id="Uie6bxuWlHnHRr9zqOEK-66" value="" style="verticalLabelPosition=bottom;shadow=0;dashed=0;align=center;html=1;verticalAlign=top;strokeWidth=1;shape=mxgraph.mockup.markup.curlyBrace;whiteSpace=wrap;strokeColor=#999999;fontFamily=Computer Modern;" parent="1" vertex="1">
          <mxGeometry x="635" y="628" width="300" height="140" as="geometry" />
        </mxCell>
        <mxCell id="Uie6bxuWlHnHRr9zqOEK-46" value="" style="shape=table;startSize=0;container=1;collapsible=0;childLayout=tableLayout;fontFamily=Computer Modern;fontSize=14;" parent="1" vertex="1">
          <mxGeometry x="-85" y="730" width="1020" height="40" as="geometry" />
        </mxCell>
        <mxCell id="Uie6bxuWlHnHRr9zqOEK-47" value="" style="shape=tableRow;horizontal=0;startSize=0;swimlaneHead=0;swimlaneBody=0;strokeColor=inherit;top=0;left=0;bottom=0;right=0;collapsible=0;dropTarget=0;fillColor=none;points=[[0,0.5],[1,0.5]];portConstraint=eastwest;fontFamily=Computer Modern;fontSize=14;" parent="Uie6bxuWlHnHRr9zqOEK-46" vertex="1">
          <mxGeometry width="1020" height="40" as="geometry" />
        </mxCell>
        <mxCell id="Uie6bxuWlHnHRr9zqOEK-48" value="2" style="shape=partialRectangle;html=1;whiteSpace=wrap;connectable=0;strokeColor=inherit;overflow=hidden;fillColor=none;top=0;left=0;bottom=0;right=0;pointerEvents=1;fontFamily=Computer Modern;fontSize=14;" parent="Uie6bxuWlHnHRr9zqOEK-47" vertex="1">
          <mxGeometry width="60" height="40" as="geometry">
            <mxRectangle width="60" height="40" as="alternateBounds" />
          </mxGeometry>
        </mxCell>
        <mxCell id="Uie6bxuWlHnHRr9zqOEK-49" value="3" style="shape=partialRectangle;html=1;whiteSpace=wrap;connectable=0;strokeColor=inherit;overflow=hidden;fillColor=none;top=0;left=0;bottom=0;right=0;pointerEvents=1;fontFamily=Computer Modern;fontSize=14;" parent="Uie6bxuWlHnHRr9zqOEK-47" vertex="1">
          <mxGeometry x="60" width="60" height="40" as="geometry">
            <mxRectangle width="60" height="40" as="alternateBounds" />
          </mxGeometry>
        </mxCell>
        <mxCell id="Uie6bxuWlHnHRr9zqOEK-50" value="4" style="shape=partialRectangle;html=1;whiteSpace=wrap;connectable=0;strokeColor=inherit;overflow=hidden;fillColor=none;top=0;left=0;bottom=0;right=0;pointerEvents=1;fontFamily=Computer Modern;fontSize=14;" parent="Uie6bxuWlHnHRr9zqOEK-47" vertex="1">
          <mxGeometry x="120" width="60" height="40" as="geometry">
            <mxRectangle width="60" height="40" as="alternateBounds" />
          </mxGeometry>
        </mxCell>
        <mxCell id="Uie6bxuWlHnHRr9zqOEK-51" value="5" style="shape=partialRectangle;html=1;whiteSpace=wrap;connectable=0;strokeColor=inherit;overflow=hidden;fillColor=none;top=0;left=0;bottom=0;right=0;pointerEvents=1;fontFamily=Computer Modern;fontSize=14;" parent="Uie6bxuWlHnHRr9zqOEK-47" vertex="1">
          <mxGeometry x="180" width="60" height="40" as="geometry">
            <mxRectangle width="60" height="40" as="alternateBounds" />
          </mxGeometry>
        </mxCell>
        <mxCell id="Uie6bxuWlHnHRr9zqOEK-52" value="4" style="shape=partialRectangle;html=1;whiteSpace=wrap;connectable=0;strokeColor=inherit;overflow=hidden;fillColor=none;top=0;left=0;bottom=0;right=0;pointerEvents=1;fontFamily=Computer Modern;fontSize=14;" parent="Uie6bxuWlHnHRr9zqOEK-47" vertex="1">
          <mxGeometry x="240" width="60" height="40" as="geometry">
            <mxRectangle width="60" height="40" as="alternateBounds" />
          </mxGeometry>
        </mxCell>
        <mxCell id="Uie6bxuWlHnHRr9zqOEK-53" value="6" style="shape=partialRectangle;html=1;whiteSpace=wrap;connectable=0;strokeColor=inherit;overflow=hidden;fillColor=none;top=0;left=0;bottom=0;right=0;pointerEvents=1;fontFamily=Computer Modern;fontSize=14;" parent="Uie6bxuWlHnHRr9zqOEK-47" vertex="1">
          <mxGeometry x="300" width="60" height="40" as="geometry">
            <mxRectangle width="60" height="40" as="alternateBounds" />
          </mxGeometry>
        </mxCell>
        <mxCell id="Uie6bxuWlHnHRr9zqOEK-54" value="&lt;b style=&quot;font-size: 14px;&quot;&gt;&lt;u style=&quot;font-size: 14px;&quot;&gt;&lt;font style=&quot;font-size: 14px;&quot;&gt;4&lt;/font&gt;&lt;/u&gt;&lt;/b&gt;" style="shape=partialRectangle;html=1;whiteSpace=wrap;connectable=0;strokeColor=inherit;overflow=hidden;fillColor=none;top=0;left=0;bottom=0;right=0;pointerEvents=1;fontFamily=Computer Modern;fontSize=14;" parent="Uie6bxuWlHnHRr9zqOEK-47" vertex="1">
          <mxGeometry x="360" width="60" height="40" as="geometry">
            <mxRectangle width="60" height="40" as="alternateBounds" />
          </mxGeometry>
        </mxCell>
        <mxCell id="Uie6bxuWlHnHRr9zqOEK-55" value="&lt;b style=&quot;font-size: 14px;&quot;&gt;&lt;u style=&quot;font-size: 14px;&quot;&gt;&lt;font style=&quot;font-size: 14px;&quot;&gt;5&lt;/font&gt;&lt;/u&gt;&lt;/b&gt;" style="shape=partialRectangle;html=1;whiteSpace=wrap;connectable=0;strokeColor=inherit;overflow=hidden;fillColor=none;top=0;left=0;bottom=0;right=0;pointerEvents=1;fontFamily=Computer Modern;fontSize=14;" parent="Uie6bxuWlHnHRr9zqOEK-47" vertex="1">
          <mxGeometry x="420" width="60" height="40" as="geometry">
            <mxRectangle width="60" height="40" as="alternateBounds" />
          </mxGeometry>
        </mxCell>
        <mxCell id="Uie6bxuWlHnHRr9zqOEK-56" value="7" style="shape=partialRectangle;html=1;whiteSpace=wrap;connectable=0;strokeColor=inherit;overflow=hidden;fillColor=none;top=0;left=0;bottom=0;right=0;pointerEvents=1;fontFamily=Computer Modern;fontSize=14;" parent="Uie6bxuWlHnHRr9zqOEK-47" vertex="1">
          <mxGeometry x="480" width="60" height="40" as="geometry">
            <mxRectangle width="60" height="40" as="alternateBounds" />
          </mxGeometry>
        </mxCell>
        <mxCell id="Uie6bxuWlHnHRr9zqOEK-57" value="2" style="shape=partialRectangle;html=1;whiteSpace=wrap;connectable=0;strokeColor=inherit;overflow=hidden;fillColor=none;top=0;left=0;bottom=0;right=0;pointerEvents=1;fontFamily=Computer Modern;fontSize=14;" parent="Uie6bxuWlHnHRr9zqOEK-47" vertex="1">
          <mxGeometry x="540" width="60" height="40" as="geometry">
            <mxRectangle width="60" height="40" as="alternateBounds" />
          </mxGeometry>
        </mxCell>
        <mxCell id="Uie6bxuWlHnHRr9zqOEK-58" value="3" style="shape=partialRectangle;html=1;whiteSpace=wrap;connectable=0;strokeColor=inherit;overflow=hidden;fillColor=none;top=0;left=0;bottom=0;right=0;pointerEvents=1;fontFamily=Computer Modern;fontSize=14;" parent="Uie6bxuWlHnHRr9zqOEK-47" vertex="1">
          <mxGeometry x="600" width="60" height="40" as="geometry">
            <mxRectangle width="60" height="40" as="alternateBounds" />
          </mxGeometry>
        </mxCell>
        <mxCell id="Uie6bxuWlHnHRr9zqOEK-59" value="5" style="shape=partialRectangle;html=1;whiteSpace=wrap;connectable=0;strokeColor=inherit;overflow=hidden;fillColor=none;top=0;left=0;bottom=0;right=0;pointerEvents=1;fontFamily=Computer Modern;fontSize=14;" parent="Uie6bxuWlHnHRr9zqOEK-47" vertex="1">
          <mxGeometry x="660" width="60" height="40" as="geometry">
            <mxRectangle width="60" height="40" as="alternateBounds" />
          </mxGeometry>
        </mxCell>
        <mxCell id="Uie6bxuWlHnHRr9zqOEK-60" value="2" style="shape=partialRectangle;html=1;whiteSpace=wrap;connectable=0;strokeColor=inherit;overflow=hidden;fillColor=none;top=0;left=0;bottom=0;right=0;pointerEvents=1;fontFamily=Computer Modern;fontSize=14;" parent="Uie6bxuWlHnHRr9zqOEK-47" vertex="1">
          <mxGeometry x="720" width="60" height="40" as="geometry">
            <mxRectangle width="60" height="40" as="alternateBounds" />
          </mxGeometry>
        </mxCell>
        <mxCell id="Uie6bxuWlHnHRr9zqOEK-61" value="8" style="shape=partialRectangle;html=1;whiteSpace=wrap;connectable=0;strokeColor=inherit;overflow=hidden;fillColor=none;top=0;left=0;bottom=0;right=0;pointerEvents=1;fontFamily=Computer Modern;fontSize=14;" parent="Uie6bxuWlHnHRr9zqOEK-47" vertex="1">
          <mxGeometry x="780" width="60" height="40" as="geometry">
            <mxRectangle width="60" height="40" as="alternateBounds" />
          </mxGeometry>
        </mxCell>
        <mxCell id="Uie6bxuWlHnHRr9zqOEK-62" value="9" style="shape=partialRectangle;html=1;whiteSpace=wrap;connectable=0;strokeColor=inherit;overflow=hidden;fillColor=none;top=0;left=0;bottom=0;right=0;pointerEvents=1;fontFamily=Computer Modern;fontSize=14;" parent="Uie6bxuWlHnHRr9zqOEK-47" vertex="1">
          <mxGeometry x="840" width="60" height="40" as="geometry">
            <mxRectangle width="60" height="40" as="alternateBounds" />
          </mxGeometry>
        </mxCell>
        <mxCell id="Uie6bxuWlHnHRr9zqOEK-63" value="2" style="shape=partialRectangle;html=1;whiteSpace=wrap;connectable=0;strokeColor=inherit;overflow=hidden;fillColor=none;top=0;left=0;bottom=0;right=0;pointerEvents=1;fontFamily=Computer Modern;fontSize=14;" parent="Uie6bxuWlHnHRr9zqOEK-47" vertex="1">
          <mxGeometry x="900" width="60" height="40" as="geometry">
            <mxRectangle width="60" height="40" as="alternateBounds" />
          </mxGeometry>
        </mxCell>
        <mxCell id="Uie6bxuWlHnHRr9zqOEK-64" value="10" style="shape=partialRectangle;html=1;whiteSpace=wrap;connectable=0;strokeColor=inherit;overflow=hidden;fillColor=none;top=0;left=0;bottom=0;right=0;pointerEvents=1;fontFamily=Computer Modern;fontSize=14;" parent="Uie6bxuWlHnHRr9zqOEK-47" vertex="1">
          <mxGeometry x="960" width="60" height="40" as="geometry">
            <mxRectangle width="60" height="40" as="alternateBounds" />
          </mxGeometry>
        </mxCell>
        <mxCell id="Uie6bxuWlHnHRr9zqOEK-67" value="&lt;font style=&quot;font-size: 18px;&quot;&gt;start = 0&lt;br style=&quot;font-size: 18px;&quot;&gt;end = 4&lt;/font&gt;" style="text;html=1;align=left;verticalAlign=middle;resizable=0;points=[];autosize=1;strokeColor=none;fillColor=none;fontFamily=Computer Modern;fontSize=18;" parent="1" vertex="1">
          <mxGeometry x="155" y="259" width="80" height="60" as="geometry" />
        </mxCell>
        <mxCell id="Uie6bxuWlHnHRr9zqOEK-68" value="&lt;font style=&quot;font-size: 18px;&quot;&gt;start = 5&lt;br style=&quot;font-size: 18px;&quot;&gt;end = 9&lt;/font&gt;" style="text;html=1;align=left;verticalAlign=middle;resizable=0;points=[];autosize=1;strokeColor=none;fillColor=none;fontFamily=Computer Modern;fontSize=18;" parent="1" vertex="1">
          <mxGeometry x="470" y="259" width="80" height="60" as="geometry" />
        </mxCell>
        <mxCell id="Uie6bxuWlHnHRr9zqOEK-69" value="&lt;font style=&quot;font-size: 18px;&quot;&gt;start = 10&lt;br style=&quot;font-size: 18px;&quot;&gt;end = 14&lt;/font&gt;" style="text;html=1;align=left;verticalAlign=middle;resizable=0;points=[];autosize=1;strokeColor=none;fillColor=none;fontFamily=Computer Modern;fontSize=18;" parent="1" vertex="1">
          <mxGeometry x="760" y="259" width="90" height="60" as="geometry" />
        </mxCell>
        <mxCell id="Uie6bxuWlHnHRr9zqOEK-70" value="&lt;font style=&quot;font-size: 18px;&quot;&gt;start = 0&lt;br style=&quot;font-size: 18px;&quot;&gt;end = 4&lt;/font&gt;" style="text;html=1;align=left;verticalAlign=middle;resizable=0;points=[];autosize=1;strokeColor=none;fillColor=none;fontFamily=Computer Modern;fontSize=18;" parent="1" vertex="1">
          <mxGeometry x="110" y="559" width="80" height="60" as="geometry" />
        </mxCell>
        <mxCell id="Uie6bxuWlHnHRr9zqOEK-71" value="&lt;font style=&quot;font-size: 18px;&quot;&gt;start = 5&lt;br style=&quot;font-size: 18px;&quot;&gt;end = &lt;b style=&quot;font-size: 18px;&quot;&gt;11&lt;/b&gt;&lt;/font&gt;" style="text;html=1;align=left;verticalAlign=middle;resizable=0;points=[];autosize=1;strokeColor=none;fillColor=none;fontFamily=Computer Modern;fontSize=18;" parent="1" vertex="1">
          <mxGeometry x="470" y="559" width="90" height="60" as="geometry" />
        </mxCell>
        <mxCell id="Uie6bxuWlHnHRr9zqOEK-72" value="&lt;font style=&quot;font-size: 18px;&quot;&gt;start = &lt;b style=&quot;font-size: 18px;&quot;&gt;12&lt;/b&gt;&lt;br style=&quot;font-size: 18px;&quot;&gt;end = &lt;b style=&quot;font-size: 18px;&quot;&gt;16&lt;/b&gt;&lt;/font&gt;" style="text;html=1;align=left;verticalAlign=middle;resizable=0;points=[];autosize=1;strokeColor=none;fillColor=none;fontFamily=Computer Modern;fontSize=18;" parent="1" vertex="1">
          <mxGeometry x="830" y="559" width="90" height="60" as="geometry" />
        </mxCell>
        <mxCell id="Uie6bxuWlHnHRr9zqOEK-2" value="" style="shape=table;startSize=0;container=1;collapsible=0;childLayout=tableLayout;fontFamily=Computer Modern;fontSize=14;" parent="1" vertex="1">
          <mxGeometry x="-30" y="430" width="900" height="40" as="geometry" />
        </mxCell>
        <mxCell id="Uie6bxuWlHnHRr9zqOEK-3" value="" style="shape=tableRow;horizontal=0;startSize=0;swimlaneHead=0;swimlaneBody=0;strokeColor=inherit;top=0;left=0;bottom=0;right=0;collapsible=0;dropTarget=0;fillColor=none;points=[[0,0.5],[1,0.5]];portConstraint=eastwest;fontFamily=Computer Modern;fontSize=14;" parent="Uie6bxuWlHnHRr9zqOEK-2" vertex="1">
          <mxGeometry width="900" height="40" as="geometry" />
        </mxCell>
        <mxCell id="Uie6bxuWlHnHRr9zqOEK-4" value="2" style="shape=partialRectangle;html=1;whiteSpace=wrap;connectable=0;strokeColor=inherit;overflow=hidden;fillColor=none;top=0;left=0;bottom=0;right=0;pointerEvents=1;fontFamily=Computer Modern;fontSize=14;" parent="Uie6bxuWlHnHRr9zqOEK-3" vertex="1">
          <mxGeometry width="60" height="40" as="geometry">
            <mxRectangle width="60" height="40" as="alternateBounds" />
          </mxGeometry>
        </mxCell>
        <mxCell id="Uie6bxuWlHnHRr9zqOEK-5" value="3" style="shape=partialRectangle;html=1;whiteSpace=wrap;connectable=0;strokeColor=inherit;overflow=hidden;fillColor=none;top=0;left=0;bottom=0;right=0;pointerEvents=1;fontFamily=Computer Modern;fontSize=14;" parent="Uie6bxuWlHnHRr9zqOEK-3" vertex="1">
          <mxGeometry x="60" width="60" height="40" as="geometry">
            <mxRectangle width="60" height="40" as="alternateBounds" />
          </mxGeometry>
        </mxCell>
        <mxCell id="Uie6bxuWlHnHRr9zqOEK-6" value="4" style="shape=partialRectangle;html=1;whiteSpace=wrap;connectable=0;strokeColor=inherit;overflow=hidden;fillColor=none;top=0;left=0;bottom=0;right=0;pointerEvents=1;fontFamily=Computer Modern;fontSize=14;" parent="Uie6bxuWlHnHRr9zqOEK-3" vertex="1">
          <mxGeometry x="120" width="60" height="40" as="geometry">
            <mxRectangle width="60" height="40" as="alternateBounds" />
          </mxGeometry>
        </mxCell>
        <mxCell id="Uie6bxuWlHnHRr9zqOEK-7" value="5" style="shape=partialRectangle;html=1;whiteSpace=wrap;connectable=0;strokeColor=inherit;overflow=hidden;fillColor=none;top=0;left=0;bottom=0;right=0;pointerEvents=1;fontFamily=Computer Modern;fontSize=14;" parent="Uie6bxuWlHnHRr9zqOEK-3" vertex="1">
          <mxGeometry x="180" width="60" height="40" as="geometry">
            <mxRectangle width="60" height="40" as="alternateBounds" />
          </mxGeometry>
        </mxCell>
        <mxCell id="Uie6bxuWlHnHRr9zqOEK-8" value="4" style="shape=partialRectangle;html=1;whiteSpace=wrap;connectable=0;strokeColor=inherit;overflow=hidden;fillColor=none;top=0;left=0;bottom=0;right=0;pointerEvents=1;fontFamily=Computer Modern;fontSize=14;" parent="Uie6bxuWlHnHRr9zqOEK-3" vertex="1">
          <mxGeometry x="240" width="60" height="40" as="geometry">
            <mxRectangle width="60" height="40" as="alternateBounds" />
          </mxGeometry>
        </mxCell>
        <mxCell id="Uie6bxuWlHnHRr9zqOEK-9" value="6" style="shape=partialRectangle;html=1;whiteSpace=wrap;connectable=0;strokeColor=inherit;overflow=hidden;fillColor=none;top=0;left=0;bottom=0;right=0;pointerEvents=1;fontFamily=Computer Modern;fontSize=14;" parent="Uie6bxuWlHnHRr9zqOEK-3" vertex="1">
          <mxGeometry x="300" width="60" height="40" as="geometry">
            <mxRectangle width="60" height="40" as="alternateBounds" />
          </mxGeometry>
        </mxCell>
        <mxCell id="Uie6bxuWlHnHRr9zqOEK-10" value="7" style="shape=partialRectangle;html=1;whiteSpace=wrap;connectable=0;strokeColor=inherit;overflow=hidden;fillColor=none;top=0;left=0;bottom=0;right=0;pointerEvents=1;fontFamily=Computer Modern;fontSize=14;" parent="Uie6bxuWlHnHRr9zqOEK-3" vertex="1">
          <mxGeometry x="360" width="60" height="40" as="geometry">
            <mxRectangle width="60" height="40" as="alternateBounds" />
          </mxGeometry>
        </mxCell>
        <mxCell id="Uie6bxuWlHnHRr9zqOEK-11" value="2" style="shape=partialRectangle;html=1;whiteSpace=wrap;connectable=0;strokeColor=inherit;overflow=hidden;fillColor=none;top=0;left=0;bottom=0;right=0;pointerEvents=1;fontFamily=Computer Modern;fontSize=14;" parent="Uie6bxuWlHnHRr9zqOEK-3" vertex="1">
          <mxGeometry x="420" width="60" height="40" as="geometry">
            <mxRectangle width="60" height="40" as="alternateBounds" />
          </mxGeometry>
        </mxCell>
        <mxCell id="Uie6bxuWlHnHRr9zqOEK-12" value="3" style="shape=partialRectangle;html=1;whiteSpace=wrap;connectable=0;strokeColor=inherit;overflow=hidden;fillColor=none;top=0;left=0;bottom=0;right=0;pointerEvents=1;fontFamily=Computer Modern;fontSize=14;" parent="Uie6bxuWlHnHRr9zqOEK-3" vertex="1">
          <mxGeometry x="480" width="60" height="40" as="geometry">
            <mxRectangle width="60" height="40" as="alternateBounds" />
          </mxGeometry>
        </mxCell>
        <mxCell id="Uie6bxuWlHnHRr9zqOEK-13" value="5" style="shape=partialRectangle;html=1;whiteSpace=wrap;connectable=0;strokeColor=inherit;overflow=hidden;fillColor=none;top=0;left=0;bottom=0;right=0;pointerEvents=1;fontFamily=Computer Modern;fontSize=14;" parent="Uie6bxuWlHnHRr9zqOEK-3" vertex="1">
          <mxGeometry x="540" width="60" height="40" as="geometry">
            <mxRectangle width="60" height="40" as="alternateBounds" />
          </mxGeometry>
        </mxCell>
        <mxCell id="Uie6bxuWlHnHRr9zqOEK-14" value="2" style="shape=partialRectangle;html=1;whiteSpace=wrap;connectable=0;strokeColor=inherit;overflow=hidden;fillColor=none;top=0;left=0;bottom=0;right=0;pointerEvents=1;fontFamily=Computer Modern;fontSize=14;" parent="Uie6bxuWlHnHRr9zqOEK-3" vertex="1">
          <mxGeometry x="600" width="60" height="40" as="geometry">
            <mxRectangle width="60" height="40" as="alternateBounds" />
          </mxGeometry>
        </mxCell>
        <mxCell id="Uie6bxuWlHnHRr9zqOEK-15" value="8" style="shape=partialRectangle;html=1;whiteSpace=wrap;connectable=0;strokeColor=inherit;overflow=hidden;fillColor=none;top=0;left=0;bottom=0;right=0;pointerEvents=1;fontFamily=Computer Modern;fontSize=14;" parent="Uie6bxuWlHnHRr9zqOEK-3" vertex="1">
          <mxGeometry x="660" width="60" height="40" as="geometry">
            <mxRectangle width="60" height="40" as="alternateBounds" />
          </mxGeometry>
        </mxCell>
        <mxCell id="Uie6bxuWlHnHRr9zqOEK-16" value="9" style="shape=partialRectangle;html=1;whiteSpace=wrap;connectable=0;strokeColor=inherit;overflow=hidden;fillColor=none;top=0;left=0;bottom=0;right=0;pointerEvents=1;fontFamily=Computer Modern;fontSize=14;" parent="Uie6bxuWlHnHRr9zqOEK-3" vertex="1">
          <mxGeometry x="720" width="60" height="40" as="geometry">
            <mxRectangle width="60" height="40" as="alternateBounds" />
          </mxGeometry>
        </mxCell>
        <mxCell id="Uie6bxuWlHnHRr9zqOEK-17" value="2" style="shape=partialRectangle;html=1;whiteSpace=wrap;connectable=0;strokeColor=inherit;overflow=hidden;fillColor=none;top=0;left=0;bottom=0;right=0;pointerEvents=1;fontFamily=Computer Modern;fontSize=14;" parent="Uie6bxuWlHnHRr9zqOEK-3" vertex="1">
          <mxGeometry x="780" width="60" height="40" as="geometry">
            <mxRectangle width="60" height="40" as="alternateBounds" />
          </mxGeometry>
        </mxCell>
        <mxCell id="Uie6bxuWlHnHRr9zqOEK-18" value="10" style="shape=partialRectangle;html=1;whiteSpace=wrap;connectable=0;strokeColor=inherit;overflow=hidden;fillColor=none;top=0;left=0;bottom=0;right=0;pointerEvents=1;fontFamily=Computer Modern;fontSize=14;" parent="Uie6bxuWlHnHRr9zqOEK-3" vertex="1">
          <mxGeometry x="840" width="60" height="40" as="geometry">
            <mxRectangle width="60" height="40" as="alternateBounds" />
          </mxGeometry>
        </mxCell>
      </root>
    </mxGraphModel>
  </diagram>
</mxfile>
